<svg xmlns="http://www.w3.org/2000/svg" viewBox="0 0 230 230">
  <path d="M115.47394,205.92004h-14.34189v28.84225h-21.8694v-28.84225h-14.26265v58.15992h14.26265v-27.97064h21.8694v27.97064h14.34189v-27.97064h6.57667v-1.34703h-6.57667zM102.47909,207.26708h11.64783v27.49522h-11.64783zM114.12691,262.73293h-11.64783v-26.62361h11.64783zM128.94422,237.53558v7.76522v8.24064v9.34996v1.10932h40.01466v-10.45927h-29.47615v-8.24064h29.47615v-10.45927h-40.01466zM130.29125,253.54145v-8.24064v-7.76522v-1.34703h37.3206v7.76522h-28.12911h-1.34703v1.34703v8.24064v1.34703h1.34703h28.12911v7.84446h-37.3206zM128.94422,216.69627h40.01466v-10.53851h-40.01466zM130.29125,207.50479h37.3206v7.84446h-37.3206zM192.65073,206.07852h-10.3008v58.00144h43.89726l-33.59646,-35.73586zM191.3037,262.73293h-7.60675v-55.30739h7.60675z" fill="none" stroke="#000"/>
</svg>
