<svg width="182" height="79" viewBox="0 0 182 79" fill="none" xmlns="http://www.w3.org/2000/svg">
<path fill-rule="evenodd" clip-rule="evenodd" d="M60.4739 10H46.132V38.8422H24.2626V10H10V68.1599H24.2626V40.1893H46.132V68.1599H60.4739V40.1893H67.0506V38.8422H60.4739V10ZM59.1269 11.347H47.4791V38.8423H59.1269V11.347ZM47.4791 66.8129H59.1269V40.1893H47.4791V66.8129Z" fill="#FFB400"/>
<path fill-rule="evenodd" clip-rule="evenodd" d="M137.651 10.1585H127.35V68.1599H171.247L137.651 32.4241V10.1585ZM128.697 66.8129H136.304V11.5055H128.697V66.8129Z" fill="#FFB400"/>
<path fill-rule="evenodd" clip-rule="evenodd" d="M73.9442 41.6155V49.3808V57.6214V66.9713V68.0807H113.959V57.6214H84.4827V49.3808H113.959V38.9215H73.9442V41.6155ZM75.2912 49.3808V57.6214V66.8129H112.612V58.9684H84.4827H83.1357V57.6214V49.3808V48.0337H84.4827H112.612V40.2685H75.2912V41.6155V49.3808Z" fill="#FFB400"/>
<path fill-rule="evenodd" clip-rule="evenodd" d="M73.9442 20.7762H113.959V10.2377H73.9442V20.7762ZM112.612 11.5847H75.2912V19.4292H112.612V11.5847Z" fill="#FFB400"/>
<path fill-rule="evenodd" clip-rule="evenodd" d="M60.4739 10H46.132V38.8422H24.2626V10H10V68.1599H24.2626V40.1893H46.132V68.1599H60.4739V40.1893H67.0506V38.8422H60.4739V10ZM59.1269 11.347H47.4791V38.8423H59.1269V11.347ZM47.4791 66.8129H59.1269V40.1893H47.4791V66.8129Z" stroke="#FFB400"/>
<path fill-rule="evenodd" clip-rule="evenodd" d="M137.651 10.1585H127.35V68.1599H171.247L137.651 32.4241V10.1585ZM128.697 66.8129H136.304V11.5055H128.697V66.8129Z" stroke="#FFB400"/>
<path fill-rule="evenodd" clip-rule="evenodd" d="M73.9442 41.6155V49.3808V57.6214V66.9713V68.0807H113.959V57.6214H84.4827V49.3808H113.959V38.9215H73.9442V41.6155ZM75.2912 49.3808V57.6214V66.8129H112.612V58.9684H84.4827H83.1357V57.6214V49.3808V48.0337H84.4827H112.612V40.2685H75.2912V41.6155V49.3808Z" stroke="#FFB400"/>
<path fill-rule="evenodd" clip-rule="evenodd" d="M73.9442 20.7762H113.959V10.2377H73.9442V20.7762ZM112.612 11.5847H75.2912V19.4292H112.612V11.5847Z" stroke="#FFB400"/>
</svg>
